<?xml version="1.0" standalone="no"?><!DOCTYPE svg PUBLIC "-//W3C//DTD SVG 1.1//EN" "http://www.w3.org/Graphics/SVG/1.1/DTD/svg11.dtd"><svg t="1766134075332" class="icon" viewBox="0 0 1024 1024" version="1.1" xmlns="http://www.w3.org/2000/svg" p-id="36864" width="200" height="200" xmlns:xlink="http://www.w3.org/1999/xlink"><path d="M512 512l64-248-64-110.4-64 110.4z" p-id="36865" fill="#945798"></path><path d="M566.4 153.6V30.4L512 115.2l-54.4-84.8v123.2zM337.6 211.2l-9.6 120-113.6-100.8L256 68.8l160 44.8 30.4 150.4zM512 512l248-68.8 62.4-110.4-128-1.6zM849.6 380.8l107.2-62.4-100.8-4.8 46.4-89.6-107.2 60.8z" p-id="36866" fill="#945798"></path><path d="M686.4 211.2L576 262.4l30.4-148.8L768 68.8l41.6 161.6-115.2 100.8zM512 512l182.4 180.8 128-1.6-62.4-110.4zM795.2 739.2l107.2 60.8-46.4-89.6 100.8-4.8-107.2-62.4zM859.2 512l-99.2-68.8 144-48L1024 512l-120 116.8-144-48zM512 512l-64 248 64 110.4 64-110.4zM457.6 870.4v123.2l54.4-84.8 54.4 84.8v-123.2zM686.4 812.8l9.6-120 113.6 100.8L768 955.2l-161.6-44.8-30.4-148.8zM512 512l-248 68.8-62.4 110.4 128 1.6zM174.4 643.2l-107.2 62.4 100.8 4.8L121.6 800l107.2-60.8zM337.6 812.8l110.4-51.2-30.4 148.8L256 955.2l-41.6-161.6 115.2-100.8zM512 512L329.6 331.2l-128 1.6 62.4 110.4zM228.8 284.8L121.6 224l46.4 89.6-100.8 4.8 107.2 62.4z" p-id="36867" fill="#945798"></path><path d="M164.8 512l99.2 68.8-144 48L0 512l120-116.8 144 48z" p-id="36868" fill="#945798"></path></svg>